# AST/ASF file generated using VICON BodyLanguage
# -----------------------------------------------
:version 1.10
:name VICON
:units
  mass 1.0
  length 0.45
  angle deg
:documentation
   .ast/.asf automatically generated from VICON data using
   VICON BodyBuilder and BodyLanguage model FoxedUp or BRILLIANT.MOD
:root
   order TX TY TZ RX RY RZ
   axis XYZ
   position 0 0 0  
   orientation 0 0 0 
:bonedata
  begin
     id 1 
     name lhipjoint
     direction 0.690799 -0.707083 0.151096 
     length 2.54797 
     axis 0 0 0  XYZ
  end
  begin
     id 2 
     name lfemur
     direction 0.34202 -0.939693 0  
     length 7.21646  
     axis 0 0 20  XYZ
    dof rx ry rz
    limits (-160.0 20.0)
           (-70.0 70.0)
           (-60.0 70.0)
  end
  begin
     id 3 
     name ltibia
     direction 0.34202 -0.939693 0   
     length 8.16759   
     axis 0 0 20   XYZ
    dof rx
    limits (-10.0 170.0)
  end
  begin
     id 4 
     name lfoot
     direction 0.0487203 -0.133858 0.989802   
     length 1.93375   
     axis -90 7.62852e-016 20   XYZ
    dof rx rz
    limits (-45.0 90.0)
           (-70.0 20.0)
  end
  begin
     id 5 
     name ltoes
     direction 1.53453e-011 -4.21783e-011 1   
     length 0.979747   
     axis -90 7.62852e-016 20   XYZ
    dof rx
    limits (-90.0 20.0)
  end
  begin
     id 6 
     name rhipjoint
     direction -0.694693 -0.703425 0.150315   
     length 2.56122  
     axis 0 0 0  XYZ 
  end
  begin
     id 7 
     name rfemur
     direction -0.34202 -0.939693 0   
     length 7.36786   
     axis 0 0 -20   XYZ
    dof rx ry rz
    limits (-160.0 20.0)
           (-70.0 70.0)
           (-70.0 60.0)
  end
  begin
     id 8 
     name rtibia
     direction -0.34202 -0.939693 0   
     length 8.07288   
     axis 0 0 -20   XYZ
    dof rx
    limits (-10.0 170.0)
 end
 begin
     id 9 
     name rfoot
     direction -0.0428397 -0.117701 0.992125   
     length 1.88295  
     axis -90 -7.62852e-016 -20   XYZ
    dof rx rz
    limits (-45.0 90.0)
           (-20.0 70.0)
  end
  begin
     id 10 
     name rtoes
     direction -1.53456e-011 -4.2187e-011 1   
     length 0.955578   
     axis -90 -7.62852e-016 -20   XYZ
    dof rx
    limits (-90.0 20.0)
  end
  begin
     id 11 
     name lowerback
     direction 0.0288145 0.999398 -0.0193241   
     length 1.92149   
     axis 0 0 0   XYZ
    dof rx ry rz
    limits (-20.0 45.0)
           (-30.0 30.0)
           (-30.0 30.0)
  end
  begin
     id 12 
     name upperback
     direction 0.0233784 0.998099 0.0570278   
     length 1.90435   
     axis 0 0 0   XYZ
    dof rx ry rz
    limits (-20.0 45.0)
           (-30.0 30.0)
           (-30.0 30.0)
  end
  begin
     id 13 
     name thorax
     direction 0.0096694 0.997833 0.0650817   
     length 1.9111   
     axis 0 0 0   XYZ
    dof rx ry rz
    limits (-20.0 45.0)
           (-30.0 30.0)
           (-30.0 30.0)
  end
  begin
     id 14 
     name lowerneck
     direction 0.00516803 0.999916 0.0118722   
     length 1.74664   
     axis 0 0 0   XYZ
    dof rx ry rz
    limits (-20.0 45.0)
           (-30.0 30.0)
           (-30.0 30.0)
  end
  begin
     id 15 
     name upperneck
     direction -0.0510851 0.996117 -0.071696   
     length 1.68498   
     axis 0 0 0   XYZ
    dof rx ry rz
    limits (-20.0 45.0)
           (-30.0 30.0)
           (-30.0 30.0)
  end
  begin
     id 16
     name head
     direction -0.019188 0.999436 -0.0275702  
     length 1.83483  
     axis 0 0 0   XYZ
    dof rx ry rz
    limits (-20.0 45.0)
           (-30.0 30.0)
           (-30.0 30.0)
  end
  begin
     id 17 
     name lclavicle
     direction 0.967006 0.248456 -0.0562957  
     length 3.39395  
     axis 0 0 0   XYZ
    dof ry rz
    limits (-20.0 10.0)
           (0.0 20.0)
  end
  begin
     id 18 
     name lhumerus
     direction 1 -4.48962e-011 -5.62711e-019   
     length 5.24318   
     axis 180 -30 -90   XYZ
    dof rx ry rz
    limits (-60.0 90.0)
           (-90.0 90.0)
           (-90.0 90.0)
  end
  begin
     id 19
     name lradius
     direction 1 -4.48966e-011 7.90625e-027   
     length 2.98999   
     axis 180 -30 -90   XYZ
    dof rx
    limits (-10.0 170.0)
  end
  begin
     id 20
     name lwrist
     direction 1 -4.48959e-011 1.61068e-026   
     length 1.49499   
     axis -9.31229e-015 90 90   XYZ
    dof ry
    limits (-180.0 0.0)
 end
  begin
     id 21 
     name lhand
     direction 1 -4.49017e-011 3.22136e-026   
     length 0.726745   
     axis -2.0555e-014 90 90   XYZ
    dof rx rz
    limits (-90.0 90.0)
           (-45.0 45.0)
  end
  begin
     id 22 
     name lfingers
     direction 1 -4.4898e-011 6.44272e-026   
     length 0.58592   
     axis -4.11101e-014 90 90   XYZ
    dof rx
    limits (0.0 90.0)
  end
  begin
     id 23
     name lthumb
     direction 0.707107 -6.34922e-011 0.707107   
     length 0.841268   
     axis -90 45 2.85299e-015   XYZ
    dof rx rz
    limits (-45.0 45.0)
           (-45.0 45.0)
  end
  begin
     id 24 
     name rclavicle
     direction -0.972232 0.230238 0.0419005   
     length 3.40416  
     axis 0 0 0   XYZ 
    dof ry rz
    limits (-10.0 20.0)
           (-20.0 0.0)
  end
  begin
     id 25 
     name rhumerus
     direction -1 -4.48976e-011 2.48487e-027  
     length 5.37045   
     axis 180 30 90   XYZ
    dof rx ry rz
    limits (-90.0 60.0)
           (-90.0 90.0)
           (-90.0 90.0)
  end
  begin
     id 26 
     name rradius
     direction -1 -4.48942e-011 7.87951e-027   
     length 2.92792   
     axis 180 30 90   XYZ
    dof rx
    limits (-10.0 170.0)
  end
  begin
     id 27 
     name rwrist
     direction -1 -4.48969e-011 1.61068e-026   
     length 1.46396   
     axis -9.31229e-015 -90 -90   XYZ
    dof ry
    limits (-180.0 0.0)
  end
  begin
     id 28
     name rhand
     direction -1 -4.49043e-011 3.22136e-026   
     length 0.784497   
     axis -2.0555e-014 -90 -90   XYZ
    dof rx rz
    limits (-90.0 90.0)
           (-45.0 45.0)
  end
  begin
     id 29
     name rfingers
     direction -1 -4.48823e-011 6.44272e-026   
     length 0.632482   
     axis -4.11101e-014 -90 -90   XYZ
    dof rx
    limits (0.0 90.0)
  end
  begin
     id 30
     name rthumb
     direction -0.707107 -6.34923e-011 0.707107   
     length 0.908121   
     axis -90 -45 -2.85299e-015   XYZ
    dof rx rz
    limits (-45.0 45.0)
           (-45.0 45.0)
  end
:hierarchy
  begin
    root lhipjoint rhipjoint lowerback
    lhipjoint lfemur
    lfemur ltibia
    ltibia lfoot
    lfoot ltoes
    rhipjoint rfemur
    rfemur rtibia
    rtibia rfoot
    rfoot rtoes
    lowerback upperback
    upperback thorax
    thorax lowerneck lclavicle rclavicle
    lowerneck upperneck
    upperneck head
    lclavicle lhumerus
    lhumerus lradius
    lradius lwrist
    lwrist lhand lthumb
    lhand lfingers
    rclavicle rhumerus
    rhumerus rradius
    rradius rwrist
    rwrist rhand rthumb
    rhand rfingers
  end

#!OML:ASF E:\Style6\Style6.ASF
:FULLY-SPECIFIED
:DEGREES
693
root -0.392259 17.0511 0.913016 -4.64197 13.3847 -5.31648
lowerback -1.31209 5.09556 4.30741
upperback 0.579012 6.7244 -0.599194
thorax 1.89483 3.41183 -2.77991
lowerneck -0.741925 -3.86242 1.14559
upperneck 18.7381 -3.7074 -9.07511
head 5.53828 -2.27626 -3.22377
rclavicle 8.31168e-014 -3.97569e-015
rhumerus 1.11429 59.8743 -95.4281
rradius 67.3439
rwrist -53.7855
rhand -52.8116 -13.9664
rfingers 7.12502
rthumb -25.2852 -42.3106
lclavicle 8.31168e-014 -3.97569e-015
lhumerus 9.23264 -60.3007 56.8106
lradius 70.823
lwrist 29.4126
lhand -27.0772 33.3045
lfingers 7.12502
lthumb -0.494635 63.2837
rfemur -12.0784 -14.7932 24.9021
rtibia 43.4367
rfoot -20.5308 -1.40756
rtoes -4.09545
lfemur -17.8835 -3.89213 -8.60357
ltibia 47.4247
lfoot -22.5215 -3.55896
ltoes -30.0644
694
root -0.402063 17.0466 0.923222 -4.76445 13.5516 -5.50712
lowerback -1.27654 5.24017 4.53222
upperback 0.619425 6.91474 -0.628264
thorax 1.96293 3.51189 -2.92299
lowerneck -0.650567 -3.95535 1.16888
upperneck 18.8286 -3.83935 -8.9972
head 5.54511 -2.33198 -3.2086
rclavicle 1.35994e-013 -6.36111e-015
rhumerus 0.51155 60.3715 -95.9292
rradius 68.0724
rwrist -54.0102
rhand -53.2372 -14.4196
rfingers 7.12502
rthumb -25.693 -42.7055
lclavicle 1.35994e-013 -6.36111e-015
lhumerus 8.49996 -60.5123 56.8428
lradius 71.6033
lwrist 29.5644
lhand -27.0389 33.4665
lfingers 7.12502
lthumb -0.457688 63.4458
rfemur -11.9511 -14.8223 25.1329
rtibia 43.4185
rfoot -20.5912 -1.47147
rtoes -3.41713
lfemur -17.8693 -3.94018 -8.34883
ltibia 47.4811
lfoot -22.6182 -3.66095
ltoes -30.0716
695
root -0.411008 17.043 0.933519 -4.92852 13.837 -5.72473
lowerback -1.28111 5.33631 4.78986
upperback 0.718676 7.03644 -0.631228
thorax 2.11041 3.58084 -3.05271
lowerneck -0.601411 -4.00137 1.10602
upperneck 18.9048 -3.91517 -8.83851
head 5.56253 -2.36146 -3.15195
rclavicle -2.65874e-015 -2.38542e-015
rhumerus 0.0120614 60.7801 -96.4002
rradius 68.6105
rwrist -54.1248
rhand -53.2686 -14.9864
rfingers 7.12502
rthumb -25.723 -43.268
lclavicle -2.65874e-015 -2.38542e-015
lhumerus 7.8181 -60.6664 56.8007
lradius 72.4263
lwrist 29.6799
lhand -26.962 33.6536
lfingers 7.12502
lthumb -0.383361 63.633
rfemur -11.7864 -14.9755 25.3738
rtibia 43.3917
rfoot -20.684 -1.63975
rtoes -3.34113
lfemur -17.8826 -4.10348 -8.07955
ltibia 47.5473
lfoot -22.6919 -3.82531
ltoes -30.0008
696
root -0.418161 17.0408 0.943819 -5.02289 14.1918 -5.73589
lowerback -1.40758 5.39107 4.81715
upperback 0.862488 7.10051 -0.651249
thorax 2.34168 3.62091 -3.06228
lowerneck -0.632908 -4.04206 0.953185
upperneck 19.0767 -3.96694 -8.69951
head 5.62737 -2.38969 -3.09035
rclavicle 2.17296e-014 1.35174e-014
rhumerus -0.305504 61.3053 -96.6893
rradius 69.0731
rwrist -54.4111
rhand -53.4468 -15.0926
rfingers 7.12502
rthumb -25.8937 -43.3494
lclavicle 2.17296e-014 1.35174e-014
lhumerus 7.13451 -60.7319 56.7739
lradius 73.2246
lwrist 29.8498
lhand -26.9548 33.8769
lfingers 7.12502
lthumb -0.376442 63.8563
rfemur -11.634 -15.2247 25.3679
rtibia 43.3675
rfoot -20.762 -1.7241
rtoes -3.29189
lfemur -17.9189 -4.36422 -8.05778
ltibia 47.608
lfoot -22.7334 -3.93318
ltoes -30.0793
697
root -0.427135 17.0378 0.952096 -5.05527 14.4128 -5.75964
lowerback -1.5154 5.48509 4.85485
upperback 0.945119 7.21895 -0.682734
thorax 2.50733 3.68586 -3.0912
lowerneck -0.64273 -4.09989 0.923139
upperneck 19.223 -4.03182 -8.688
head 5.67282 -2.42359 -3.0887
rclavicle -7.25937e-014 2.38542e-015
rhumerus -0.610078 61.8787 -96.9869
rradius 69.5509
rwrist -54.7716
rhand -53.5488 -15.0043
rfingers 7.12502
rthumb -25.9913 -43.2468
lclavicle -7.25937e-014 2.38542e-015
lhumerus 6.38097 -60.7745 56.839
lradius 73.9728
lwrist 30.0563
lhand -27.1557 33.9242
lfingers 7.12502
lthumb -0.570443 63.9032
rfemur -11.558 -15.3549 25.4062
rtibia 43.3388
rfoot -20.8382 -1.91446
rtoes -4.47263
lfemur -17.9712 -4.49764 -8.01106
ltibia 47.6618
lfoot -22.7674 -3.99647
ltoes -30.2106
698
root -0.438729 17.0344 0.960211 -5.12949 14.5964 -5.90346
lowerback -1.48955 5.58833 5.0032
upperback 0.94923 7.35499 -0.697549
thorax 2.53082 3.75689 -3.18053
lowerneck -0.478904 -4.16697 0.903529
upperneck 19.2898 -4.11716 -8.67259
head 5.66227 -2.46148 -3.08168
rclavicle 3.98563e-014 3.18055e-015
rhumerus -1.19642 62.3667 -97.6132
rradius 69.9643
rwrist -55.11
rhand -53.4678 -14.8863
rfingers 7.12502
rthumb -25.9138 -43.1402
lclavicle 3.98563e-014 3.18055e-015
lhumerus 5.33422 -60.84 57.1454
lradius 74.7721
lwrist 30.2362
lhand -27.3116 33.6788
lfingers 7.12502
lthumb -0.720996 63.6573
rfemur -11.4733 -15.4463 25.5988
rtibia 43.3143
rfoot -20.8963 -2.11718
rtoes -5.1418
lfemur -17.9994 -4.58505 -7.80389
ltibia 47.703
lfoot -22.802 -4.31648
ltoes -29.3466
699
root -0.449914 17.0317 0.966932 -5.26104 14.8377 -6.01914
lowerback -1.36357 5.685 5.16034
upperback 0.963309 7.48806 -0.735802
thorax 2.51343 3.82643 -3.30865
lowerneck -0.346172 -4.22505 0.814133
upperneck 19.397 -4.20476 -8.52344
head 5.67567 -2.49763 -3.02285
rclavicle -4.5969e-016 3.18055e-015
rhumerus -1.71057 62.777 -98.2118
rradius 70.3891
rwrist -55.4267
rhand -53.5557 -15.1302
rfingers 7.12502
rthumb -25.998 -43.3718
lclavicle -4.5969e-016 3.18055e-015
lhumerus 4.39552 -60.9936 57.3861
lradius 75.5001
lwrist 30.3734
lhand -27.4404 33.7318
lfingers 7.12502
lthumb -0.845413 63.7099
rfemur -11.311 -15.5643 25.7371
rtibia 43.2806
rfoot -20.9979 -2.17601
rtoes -4.77196
lfemur -17.9838 -4.73418 -7.63059
ltibia 47.7376
lfoot -22.8407 -4.59428
ltoes -28.7423
700
root -0.461224 17.0283 0.973506 -5.34817 15.1486 -6.01358
lowerback -1.31228 5.77617 5.16043
upperback 1.03017 7.61279 -0.789855
thorax 2.57393 3.89226 -3.35696
lowerneck -0.305846 -4.2862 0.797635
upperneck 19.4882 -4.29217 -8.43528
head 5.69618 -2.53438 -2.99728
rclavicle -9.15776e-014 -2.3059e-014
rhumerus -1.951 63.2272 -98.4593
rradius 70.8899
rwrist -55.8363
rhand -53.8875 -15.5877
rfingers 7.12502
rthumb -26.3156 -43.7822
lclavicle -9.15776e-014 -2.3059e-014
lhumerus 3.68974 -61.1456 57.5195
lradius 76.1686
lwrist 30.6487
lhand -27.6773 34.1631
lfingers 7.12502
lthumb -1.07428 64.1401
rfemur -11.1715 -15.749 25.7385
rtibia 43.2448
rfoot -21.0852 -2.32606
rtoes -4.98354
lfemur -18.0037 -4.93329 -7.60801
ltibia 47.772
lfoot -22.8912 -4.6234
ltoes -29.1399
701
root -0.472983 17.0261 0.978585 -5.44105 15.4998 -6.07567
lowerback -1.24161 5.85382 5.21403
upperback 1.07222 7.71937 -0.82229
thorax 2.60047 3.94843 -3.41707
lowerneck -0.244171 -4.35268 0.789329
upperneck 19.5584 -4.38689 -8.36024
head 5.70553 -2.57422 -2.97634
rclavicle 7.30658e-014 -1.27222e-014
rhumerus -2.28082 63.6566 -98.7918
rradius 71.2546
rwrist -56.0138
rhand -53.4234 -16.2095
rfingers 7.12502
rthumb -25.8713 -44.4696
lclavicle 7.30658e-014 -1.27222e-014
lhumerus 2.97943 -61.387 57.647
lradius 76.89
lwrist 31.2114
lhand -28.2154 34.6575
lfingers 7.12502
lthumb -1.59397 64.6313
rfemur -11.0561 -15.9307 25.815
rtibia 43.2102
rfoot -21.1702 -2.43822
rtoes -4.69761
lfemur -18.075 -5.19639 -7.52193
ltibia 47.8067
lfoot -22.8574 -4.8034
ltoes -29.0191
702
root -0.484446 17.0224 0.9842 -5.49576 15.8924 -6.23261
lowerback -1.19064 5.92316 5.39246
upperback 1.05993 7.81242 -0.867718
thorax 2.59953 3.99827 -3.56009
lowerneck -0.230844 -4.44027 0.739263
upperneck 19.7322 -4.51049 -8.22646
head 5.75763 -2.62945 -2.93545
rclavicle 2.35933e-014 9.54166e-015
rhumerus -2.62739 64.1 -99.1348
rradius 71.5978
rwrist -55.8827
rhand -52.5051 -17.2608
rfingers 7.12502
rthumb -24.9916 -45.6462
lclavicle 2.35933e-014 9.54166e-015
lhumerus 2.33703 -61.6471 57.7058
lradius 77.5058
lwrist 31.6078
lhand -28.6834 34.8986
lfingers 7.12502
lthumb -2.0459 64.8685
rfemur -11.0151 -16.1387 26.0137
rtibia 43.1785
rfoot -21.2692 -2.68233
rtoes -5.16472
lfemur -18.2333 -5.4967 -7.32735
ltibia 47.8438
lfoot -22.8594 -5.05996
ltoes -28.5406
703
root -0.493845 17.0205 0.991082 -5.52512 16.2668 -6.28824
lowerback -1.18748 5.99725 5.48232
upperback 1.08442 7.91075 -0.927992
thorax 2.65472 4.05156 -3.6621
lowerneck -0.184865 -4.53007 0.671388
upperneck 19.8387 -4.64183 -8.08851
head 5.7836 -2.68777 -2.88782
rclavicle -2.7892e-015 7.15625e-015
rhumerus -2.75313 64.6973 -99.1899
rradius 72.019
rwrist -55.8404
rhand -52.967 -18.1526
rfingers 7.12502
rthumb -25.4341 -46.4757
lclavicle -2.7892e-015 7.15625e-015
lhumerus 1.80566 -61.7666 57.7401
lradius 78.0625
lwrist 31.7283
lhand -28.8863 35.3781
lfingers 7.12502
lthumb -2.24189 65.346
rfemur -10.9607 -16.3029 26.0925
rtibia 43.144
rfoot -21.3552 -2.78543
rtoes -4.44416
lfemur -18.3421 -5.83949 -7.26081
ltibia 47.8568
lfoot -22.8762 -5.15183
ltoes -28.0219
704
root -0.503407 17.0213 1.00104 -5.51558 16.5547 -6.27366
lowerback -1.27508 6.09397 5.47603
upperback 1.13998 8.03533 -0.976168
thorax 2.78113 4.1184 -3.68535
lowerneck -0.128201 -4.6203 0.631498
upperneck 19.8744 -4.76839 -8.02285
head 5.78275 -2.74559 -2.86509
rclavicle -1.36338e-013 3.97569e-015
rhumerus -2.91265 65.207 -99.3335
rradius 72.3854
rwrist -55.9582
rhand -53.9311 -17.8347
rfingers 7.12502
rthumb -26.3574 -46.0229
lclavicle -1.36338e-013 3.97569e-015
lhumerus 1.23302 -61.7449 57.8469
lradius 78.6136
lwrist 31.7454
lhand -28.8452 35.6697
lfingers 7.12502
lthumb -2.20217 65.6381
rfemur -10.9208 -16.4123 26.1192
rtibia 43.1149
rfoot -21.4332 -2.96633
rtoes -4.80084
lfemur -18.4196 -6.09144 -7.2581
ltibia 47.8536
lfoot -22.9257 -5.17625
ltoes -27.91
705
root -0.512024 17.024 1.01148 -5.51583 16.8406 -6.27467
lowerback -1.37498 6.19792 5.50506
upperback 1.19343 8.16849 -1.0329
thorax 2.91973 4.19049 -3.73387
lowerneck -0.0789587 -4.71642 0.670765
upperneck 19.939 -4.89696 -8.01077
head 5.78787 -2.80286 -2.87338
rclavicle 6.03343e-014 9.54166e-015
rhumerus -3.16476 65.4507 -99.6694
rradius 72.6245
rwrist -56.1575
rhand -54.0175 -16.9009
rfingers 7.12502
rthumb -26.4401 -45.0767
lclavicle 6.03343e-014 9.54166e-015
lhumerus 0.594486 -61.7045 58.0117
lradius 79.171
lwrist 31.679
lhand -28.7276 35.8134
lfingers 7.12502
lthumb -2.08864 65.7829
rfemur -10.8723 -16.5436 26.1512
rtibia 43.0881
rfoot -21.537 -3.07481
rtoes -4.86339
lfemur -18.4804 -6.34967 -7.23622
ltibia 47.8366
lfoot -22.9319 -5.01189
ltoes -28.9408
706
root -0.521713 17.0229 1.01483 -5.56337 17.2317 -6.28594
lowerback -1.30061 6.23982 5.54868
upperback 1.20328 8.22914 -1.09075
thorax 2.91007 4.22266 -3.81997
lowerneck 0.066432 -4.7828 0.649646
upperneck 19.9826 -4.98955 -7.9557
head 5.77505 -2.8418 -2.85325
rclavicle -1.61225e-013 -1.59028e-015
rhumerus -3.52342 65.7649 -100.12
rradius 72.8826
rwrist -56.3945
rhand -53.8915 -16.5324
rfingers 7.12502
rthumb -26.3194 -44.7263
lclavicle -1.61225e-013 -1.59028e-015
lhumerus -0.267656 -61.5718 58.3712
lradius 79.7459
lwrist 31.5568
lhand -28.7566 35.7202
lfingers 7.12502
lthumb -2.11663 65.6895
rfemur -10.8124 -16.7643 26.1757
rtibia 43.0584
rfoot -21.5591 -3.32355
rtoes -5.18566
lfemur -18.577 -6.70138 -7.21754
ltibia 47.8355
lfoot -23.0002 -4.54101
ltoes -31.2532
707
root -0.533825 17.0186 1.01805 -5.68516 17.5764 -6.43931
lowerback -1.15702 6.28637 5.74616
upperback 1.20497 8.29632 -1.11894
thorax 2.87203 4.25981 -3.96694
lowerneck 0.184127 -4.84963 0.5589
upperneck 20.0365 -5.08667 -7.8488
head 5.77429 -2.88517 -2.80658
rclavicle -6.58692e-014 -2.38542e-015
rhumerus -4.00828 66.1668 -100.714
rradius 73.2056
rwrist -56.4631
rhand -53.9349 -16.8897
rfingers 7.12502
rthumb -26.361 -45.0774
lclavicle -6.58692e-014 -2.38542e-015
lhumerus -1.27112 -61.3685 58.8434
lradius 80.2988
lwrist 31.302
lhand -28.965 35.4896
lfingers 7.12502
lthumb -2.31793 65.4568
rfemur -10.7185 -16.8974 26.3651
rtibia 43.0219
rfoot -21.6275 -3.52852
rtoes -4.93079
lfemur -18.6477 -6.99515 -7.02782
ltibia 47.8535
lfoot -23.0473 -4.35959
ltoes -32.2541
